<svg version="1.1" id="Layer_1" xmlns="http://www.w3.org/2000/svg" xmlns:xlink="http://www.w3.org/1999/xlink" x="0px" y="0px"
	 width="100%" viewBox="0 0 288 288" enable-background="new 0 0 288 288" xml:space="preserve">
<path fill="#000000" opacity="1.000000" stroke="none" 
	d="
M186.790817,146.895630 
	C190.763672,147.243713 193.377884,146.276169 195.936050,143.401260 
	C201.340698,137.327423 209.872284,137.672668 215.314407,143.581512 
	C220.155594,148.837860 219.685776,157.660446 214.308228,162.476578 
	C208.153931,167.988358 200.118439,167.514938 195.091385,160.797501 
	C192.991867,157.992020 190.720840,157.595322 187.609146,157.155899 
	C176.061615,155.525162 166.901672,158.821732 159.939072,168.451736 
	C157.437759,171.911331 153.968811,174.671341 150.441116,178.259598 
	C144.846619,172.606430 139.384079,167.320724 134.215286,161.761871 
	C131.743027,159.103043 129.115280,157.764008 125.469849,158.039703 
	C122.489090,158.265106 119.467911,158.227921 116.481285,158.041168 
	C111.832497,157.750504 108.151711,158.444748 104.745308,162.564117 
	C100.226799,168.028397 91.130188,167.614365 86.370972,162.757202 
	C81.412849,157.697052 81.229218,148.625809 85.984314,143.656555 
	C90.967430,138.449005 99.744133,138.138351 104.805664,143.617935 
	C107.404900,146.431854 110.055443,147.232071 113.548653,147.091537 
	C117.373360,146.937653 121.258469,147.448395 125.029442,146.972977 
	C132.380341,146.046265 137.575562,148.874222 142.358368,154.354477 
	C149.732498,162.803909 150.415604,162.903198 157.710815,154.568481 
	C163.039032,148.481033 168.879639,145.721222 176.837067,146.806564 
	C179.944824,147.230438 183.156921,146.889145 186.790817,146.895630 
M210.364960,149.172821 
	C207.644135,145.942307 204.552536,145.514099 201.281479,148.213272 
	C198.903015,150.175888 198.555664,152.934143 200.074142,155.373871 
	C201.758636,158.080338 204.464142,159.617661 207.722519,157.944595 
	C211.075012,156.223206 212.669586,153.589874 210.364960,149.172821 
M101.475288,151.156647 
	C100.763420,150.265701 100.203209,149.163162 99.311073,148.523697 
	C96.697701,146.650482 93.983047,146.685898 91.637756,148.985001 
	C89.401405,151.177307 88.615105,153.707947 90.692535,156.534485 
	C92.704109,159.271393 95.468597,159.452316 98.266411,158.406174 
	C101.153694,157.326569 101.970955,154.833115 101.475288,151.156647 
z"/>
<path fill="#000000" opacity="1.000000" stroke="none" 
	d="
M150.842468,105.987549 
	C145.949707,108.799988 142.771759,113.165817 138.979691,116.862816 
	C136.558548,119.223274 134.090927,120.580215 130.602859,120.350128 
	C126.789314,120.098579 122.944153,120.374916 119.115959,120.285141 
	C113.625748,120.156364 108.827370,120.166092 104.523750,125.317589 
	C99.946106,130.797089 90.828911,129.555588 86.305557,124.242447 
	C81.358765,118.431908 81.696243,110.314987 87.092026,105.326538 
	C92.619896,100.215973 100.897972,100.255745 105.764473,106.070145 
	C108.375671,109.189957 111.241066,109.381187 114.803116,109.893784 
	C126.320206,111.551178 135.005997,107.612747 141.933899,98.464096 
	C144.391312,95.218964 147.880020,92.754814 151.257965,89.597641 
	C156.300644,94.683708 161.656174,99.887810 166.765167,105.323601 
	C169.231491,107.947670 171.864532,109.323486 175.526718,109.039093 
	C178.671539,108.794861 181.858627,108.863495 185.013596,109.037483 
	C189.327988,109.275429 192.717346,108.450302 195.953690,104.865570 
	C201.131195,99.130699 209.997345,99.862244 214.998749,105.596779 
	C219.763153,111.059578 219.260117,120.024193 213.934906,124.555710 
	C207.763641,129.807190 199.743851,129.473816 194.940201,123.245003 
	C192.818573,120.493919 190.688217,119.267715 187.405029,119.882668 
	C172.486465,122.676971 160.570648,117.623070 150.842468,105.987549 
M205.333450,108.553101 
	C201.026337,108.944092 198.368759,111.056442 199.049408,115.615181 
	C199.591660,119.246796 202.412613,120.211815 205.770844,119.992851 
	C208.443756,119.818581 210.152054,118.468575 210.632568,115.849922 
	C211.321182,112.097298 209.512253,109.842026 205.333450,108.553101 
M98.620743,120.438644 
	C102.791618,117.117966 103.514870,114.243553 100.723526,111.413910 
	C98.690559,109.353043 96.158981,108.517204 93.466652,109.980392 
	C90.888123,111.381714 89.565857,113.698273 90.437798,116.660202 
	C91.533432,120.382004 94.335739,121.317688 98.620743,120.438644 
z"/>
<path fill="#000000" opacity="1.000000" stroke="none" 
	d="
M144.958466,85.947273 
	C140.362091,90.551384 135.545380,94.536583 131.784393,99.347176 
	C126.718193,105.827225 120.467293,104.724541 112.114388,103.610664 
	C125.490173,90.088837 137.966705,77.476067 149.360886,65.957481 
	C162.305374,78.342194 174.952820,90.442711 187.665497,102.605621 
	C181.875153,105.536552 175.216782,104.678207 171.188995,100.656860 
	C166.247528,95.723343 161.313705,90.782188 156.371277,85.849663 
	C150.730118,80.219818 150.727585,80.222359 144.958466,85.947273 
z"/>
<path fill="#000000" opacity="1.000000" stroke="none" 
	d="
M180.851196,171.854340 
	C170.471085,181.965363 160.338745,191.824799 150.132843,201.755814 
	C145.718979,198.983673 115.726128,168.235306 113.648102,163.950180 
	C120.040482,162.861130 125.874542,161.486237 130.989304,167.505859 
	C135.826645,173.198990 141.620605,178.068207 146.708115,183.564270 
	C149.493576,186.573410 151.332977,186.151306 153.943863,183.379044 
	C159.309586,177.681656 164.982452,172.273575 170.527618,166.745102 
	C174.983490,162.302643 180.923904,161.338654 187.354034,164.148209 
	C186.281494,167.495377 183.076157,169.058014 180.851196,171.854340 
z"/>
<path fill="#000000" opacity="1.000000" stroke="none" 
	d="
M166.219452,126.811333 
	C172.254440,132.643280 172.266022,132.654938 166.744217,138.142136 
	C161.327194,143.525208 155.883286,148.881210 149.820709,154.872131 
	C143.591263,148.468506 137.355270,142.054413 131.114258,135.645203 
	C129.485428,133.972488 129.773941,132.437637 131.351349,130.907532 
	C137.665558,124.782700 143.962830,118.640411 150.587418,112.192024 
	C156.101242,116.381073 160.905396,121.613487 166.219452,126.811333 
z"/>
<path fill="#000000" opacity="1.000000" stroke="none" 
	d="
M196.000824,128.949860 
	C198.831833,128.942184 201.166336,128.856079 203.495438,128.932999 
	C208.669586,129.103943 212.972519,128.785339 216.762665,123.722572 
	C221.603683,117.256104 230.846085,117.806824 236.052658,123.583061 
	C241.115372,129.199692 240.411911,138.299469 234.533585,143.233871 
	C228.419342,148.366302 220.222565,147.369110 215.342636,140.530807 
	C213.764557,138.319412 212.104065,137.452225 209.589783,137.495621 
	C200.771469,137.647781 191.952118,137.738251 183.133652,137.882477 
	C179.808380,137.936844 177.666428,137.015060 178.004257,133.031509 
	C178.256500,130.057434 179.714523,128.947968 182.508743,128.969971 
	C186.839447,129.004074 191.170792,128.957672 196.000824,128.949860 
M225.600861,127.126228 
	C222.812729,127.390350 220.860168,128.689972 220.368423,131.588440 
	C219.985519,133.845337 220.320068,135.928421 222.397308,137.353592 
	C224.477814,138.781006 226.670258,139.253922 228.955215,137.900955 
	C231.081268,136.642090 232.754303,134.856689 232.242783,132.254959 
	C231.645035,129.214706 229.729889,127.224487 225.600861,127.126228 
z"/>
<path fill="#000000" opacity="1.000000" stroke="none" 
	d="
M61.684021,133.924347 
	C62.188702,126.506317 65.628616,121.992683 71.758949,120.272522 
	C77.099731,118.773888 83.108528,121.249489 86.575226,126.822334 
	C87.920174,128.984390 89.449783,129.695267 91.827164,129.680115 
	C100.467941,129.625000 109.109619,129.724716 117.750717,129.696350 
	C120.618660,129.686935 123.108002,129.763947 123.085037,133.719849 
	C123.063728,137.391129 120.990311,138.126892 117.923706,138.115646 
	C109.282829,138.083923 100.641556,138.170303 92.000595,138.149261 
	C89.590446,138.143387 87.651299,138.383041 86.070946,140.780319 
	C82.870872,145.634583 77.228996,147.777237 72.335640,146.565643 
	C66.098358,145.021286 62.738983,141.167496 61.684021,133.924347 
M71.842880,128.450211 
	C68.420189,132.009445 68.192162,135.919495 71.356918,138.141312 
	C73.825264,139.874207 76.367233,139.782043 78.714767,137.897537 
	C81.147682,135.944489 81.496956,133.191788 80.195961,130.701050 
	C78.621002,127.685829 75.784637,126.883965 71.842880,128.450211 
z"/>
</svg>