<svg version="1.1" id="Layer_1" xmlns="http://www.w3.org/2000/svg" xmlns:xlink="http://www.w3.org/1999/xlink" x="0px" y="0px"
	 width="100%" viewBox="0 0 300 300" enable-background="new 0 0 300 300" xml:space="preserve">
<path fill="#FEFEFE" opacity="1.000000" stroke="none" 
	d="
M135.000000,301.000000 
	C90.000000,301.000000 45.500000,301.000000 1.000000,301.000000 
	C1.000000,201.000000 1.000000,101.000000 1.000000,1.000000 
	C101.000000,1.000000 201.000000,1.000000 301.000000,1.000000 
	C301.000000,101.000000 301.000000,201.000000 301.000000,301.000000 
	C245.833328,301.000000 190.666672,301.000000 135.000000,301.000000 
M158.290222,221.992004 
	C158.102875,222.292847 157.915512,222.593674 157.728165,222.894501 
	C158.839569,223.026260 159.950958,223.158005 161.001404,223.955780 
	C161.262466,224.566025 161.523529,225.176285 161.784592,225.786530 
	C162.135239,225.699738 162.485886,225.612946 162.836548,225.526154 
	C162.670303,223.171600 162.504074,220.817062 162.337845,218.462509 
	C161.894348,218.388062 161.450867,218.313614 161.007370,218.239166 
	C160.335144,219.400879 159.662903,220.562592 158.290222,221.992004 
M152.076263,108.158417 
	C150.426315,106.418327 148.776352,104.678246 146.848495,102.645081 
	C145.689484,104.109543 144.901917,105.104683 143.543472,106.419052 
	C141.698669,108.280220 139.853867,110.141388 137.386856,112.221626 
	C136.421066,113.418358 135.455276,114.615089 134.390915,116.019348 
	C134.390915,116.019348 134.301910,116.231140 133.833435,116.751953 
	C132.722549,117.625305 131.611664,118.498665 130.058502,119.719734 
	C135.614349,124.994606 140.816360,129.933548 146.708252,135.026123 
	C150.754196,131.012299 154.800140,126.998482 159.293457,122.481026 
	C159.964920,121.684837 160.636383,120.888657 162.063965,119.932518 
	C161.643799,118.965759 161.223633,117.999001 160.588547,116.421410 
	C158.428223,114.529640 156.267914,112.637871 154.010803,110.189919 
	C153.441589,109.724136 152.872391,109.258354 152.076263,108.158417 
M146.232330,173.721115 
	C147.055176,173.325043 148.067230,173.116196 148.672348,172.504669 
	C157.078949,164.009094 165.440430,155.468689 173.774857,146.902191 
	C174.469711,146.188004 174.890289,145.206955 175.478897,144.286407 
	C169.163544,142.694290 164.702744,144.440155 160.637695,149.127640 
	C156.221603,154.219940 150.917557,158.542206 145.720276,162.575424 
	C141.289825,158.106583 136.472092,153.950912 132.535553,149.082687 
	C128.425644,144.000031 123.624481,143.207596 116.594543,144.767258 
	C121.096504,149.049530 125.058311,152.742432 128.934586,156.523026 
	C134.600388,162.048996 140.204819,167.637878 146.232330,173.721115 
M146.724304,76.758026 
	C151.990173,81.780006 157.604492,86.493195 162.413635,91.919922 
	C166.388611,96.405365 170.691055,96.014832 176.062790,94.335938 
	C167.166061,84.822197 157.865219,75.839104 148.475388,66.950027 
	C148.002487,66.502357 146.760208,66.867378 145.273926,67.144722 
	C136.013931,76.478096 126.753937,85.811470 117.493942,95.144836 
	C117.740700,95.556267 117.987457,95.967697 118.234207,96.379128 
	C121.609306,95.911087 125.985161,96.616928 128.170776,94.753632 
	C134.580933,89.288826 140.119904,82.802139 146.724304,76.758026 
M95.754196,112.778091 
	C100.537865,115.115639 105.730606,117.393860 109.883041,112.499931 
	C112.706429,109.172363 115.715775,108.712433 119.474930,108.842987 
	C123.465965,108.981606 127.469337,108.972664 131.459351,108.819893 
	C132.855774,108.766426 134.639816,108.513626 135.539978,107.630959 
	C139.193298,104.048615 142.571823,100.186028 146.695465,96.377144 
	C154.328506,105.473618 163.372116,110.855652 175.912064,108.519699 
	C177.897339,108.149887 180.803970,109.832413 182.510269,111.405815 
	C187.469696,115.979027 191.848953,116.274040 196.930405,111.819679 
	C197.814972,111.044266 198.978439,110.587029 200.670929,110.573914 
	C198.791840,115.582306 195.341400,117.248741 189.941681,116.812088 
	C183.236542,116.269875 176.454208,116.682137 169.962631,116.682137 
	C168.408661,121.550179 170.025436,122.811913 174.073120,122.666885 
	C180.727081,122.428474 187.402420,122.443352 194.053726,122.716911 
	C195.719482,122.785416 197.761490,123.863289 198.885437,125.135544 
	C203.069305,129.871429 208.058792,130.944809 213.025787,127.740173 
	C217.264481,125.005432 219.093216,119.777336 217.279037,115.580719 
	C215.051468,110.427849 209.274979,108.022202 203.485519,109.725594 
	C202.380219,110.050797 201.145538,109.936256 199.666168,109.343567 
	C199.651215,108.845459 199.536575,108.326302 199.636566,107.852448 
	C200.788895,102.391418 198.859100,97.552361 194.619492,95.358147 
	C190.567841,93.261208 185.720795,94.757240 181.761627,98.888313 
	C180.669754,100.027588 178.777191,100.797539 177.172409,100.962448 
	C174.045792,101.283760 170.846222,100.854721 167.707855,101.112991 
	C164.255722,101.397072 161.752472,100.280037 159.458206,97.663734 
	C156.064560,93.793739 152.325211,90.223984 148.679367,86.580109 
	C147.746445,85.647690 146.570786,83.703407 145.049271,86.931007 
	C143.489990,88.411530 141.613449,89.674706 140.425064,91.409340 
	C134.545364,99.991753 126.413101,102.869400 116.466591,101.095009 
	C114.583107,100.759010 112.458237,99.903885 111.147621,98.588150 
	C107.552559,94.979050 103.191818,93.736504 99.083801,95.754807 
	C94.511948,98.000984 92.257729,102.711166 93.299820,107.766190 
	C93.590637,109.176910 93.785011,110.607498 93.305595,111.911179 
	C93.164375,111.823166 93.026482,111.729218 92.881454,111.648003 
	C86.510422,108.080208 81.138741,108.975258 77.639389,114.186600 
	C74.627419,118.672104 75.770187,124.376381 80.378998,127.861809 
	C85.214645,131.518768 90.070686,130.409470 95.119461,124.995567 
	C96.241737,123.792130 98.484566,123.143845 100.233490,123.098984 
	C108.006866,122.899635 115.788254,123.012543 123.841614,123.012543 
	C123.841614,120.871445 123.841614,119.310127 123.841614,117.163986 
	C115.791862,117.163986 108.008484,117.037819 100.232605,117.224480 
	C97.007263,117.301903 95.109741,116.402451 95.754196,112.778091 
M145.888229,153.888306 
	C148.625031,151.664566 151.929794,149.868408 153.988297,147.134033 
	C159.386185,139.963867 166.073914,137.037064 175.007477,138.224716 
	C178.389282,138.674332 181.022263,138.816620 183.377975,142.038376 
	C186.719589,146.608536 193.237518,146.495163 197.569138,142.634689 
	C201.703506,138.950043 202.188416,132.908737 198.684601,128.737457 
	C195.030457,124.387215 187.881790,123.121819 184.588409,127.217392 
	C181.376205,131.212021 177.725006,131.133072 173.578934,131.053574 
	C170.087677,130.986618 166.545990,130.689774 163.117981,131.160324 
	C160.706390,131.491348 158.098343,132.492752 156.196243,133.983597 
	C152.568756,136.826736 149.383011,140.233459 145.700668,142.773529 
	C139.279892,133.273468 130.593719,128.974991 119.072067,131.154938 
	C118.591133,131.245941 118.073441,131.122833 117.580544,131.173721 
	C114.460678,131.495728 112.160957,130.732620 109.854324,128.093353 
	C105.988777,123.670410 99.160721,124.173676 95.237740,128.463593 
	C91.768219,132.257629 92.075256,139.475815 95.856026,142.999222 
	C99.894073,146.762405 106.594582,146.812790 110.080437,142.324738 
	C112.490517,139.221756 115.062073,138.579712 118.519310,138.838211 
	C120.996231,139.023392 123.588402,138.462311 125.965088,138.983032 
	C128.669571,139.575562 131.602875,140.487366 133.706467,142.172150 
	C137.951767,145.572281 141.703018,149.589233 145.888229,153.888306 
M200.224075,190.355698 
	C198.087265,187.923782 197.163574,190.041489 196.161774,191.494720 
	C194.767197,193.517746 193.470703,195.608383 191.706635,198.325638 
	C189.231277,186.361481 189.231277,186.361481 185.623642,186.394302 
	C186.918121,193.068451 188.190903,199.630707 189.463669,206.192963 
	C190.059235,206.216370 190.654785,206.239761 191.250336,206.263153 
	C193.651703,202.515991 196.053070,198.768814 198.512161,194.931580 
	C201.254242,199.017365 203.787613,202.792175 206.320999,206.566986 
	C206.860107,206.343826 207.399216,206.120651 207.938309,205.897476 
	C209.085556,199.338562 210.232803,192.779648 211.599167,184.967972 
	C204.916809,188.094894 208.052811,194.123123 204.977661,197.988785 
	C203.509308,195.573547 202.090500,193.239807 200.224075,190.355698 
M252.259262,189.804977 
	C252.435760,191.316696 253.023178,194.052643 252.725723,194.152466 
	C249.431305,195.258316 245.999664,195.955368 242.573853,196.770432 
	C243.063049,200.323669 252.214233,206.213089 257.823944,205.304794 
	C255.288162,203.448425 253.333618,202.017563 251.200607,200.456039 
	C252.990280,199.071945 254.306030,198.346497 255.234833,197.283066 
	C258.443481,193.609268 257.247437,186.532928 253.229675,186.160263 
	C248.205933,185.694305 243.106110,186.048248 237.509979,186.048248 
	C237.509979,192.519775 237.405609,198.310730 237.632675,204.088638 
	C237.663528,204.873764 239.353241,205.593719 241.162598,207.066391 
	C241.162598,200.310501 241.162598,195.203629 241.162598,189.741623 
	C244.752625,189.741623 248.033493,189.741623 252.259262,189.804977 
M75.456734,199.723633 
	C77.460556,201.106583 79.370529,202.661041 81.494972,203.823547 
	C83.561638,204.954422 85.848038,205.683746 88.037956,206.589386 
	C88.236862,206.188904 88.435768,205.788422 88.634674,205.387939 
	C86.800842,203.660248 84.967003,201.932556 82.849609,199.937698 
	C83.951302,199.426575 84.550720,199.214813 85.082092,198.891281 
	C88.829681,196.609528 89.196930,193.105377 88.340179,189.303619 
	C87.484978,185.508713 84.375656,185.948318 81.551704,185.955002 
	C78.728394,185.961700 75.899040,186.071228 73.083473,185.923462 
	C70.418495,185.783600 69.028625,186.606674 69.102898,189.525696 
	C69.221130,194.172852 68.993240,198.832825 69.242599,203.469589 
	C69.298546,204.509933 70.720810,205.476807 71.514061,206.477493 
	C72.014168,206.203003 72.514267,205.928528 73.014374,205.654037 
	C73.014374,200.424133 73.014374,195.194229 73.014374,190.032379 
	C77.267242,190.032379 81.020691,190.032379 84.924004,190.032379 
	C85.472084,199.504105 77.840614,194.287582 74.064949,196.611206 
	C74.238068,197.427277 74.458817,198.467941 75.456734,199.723633 
M41.404690,204.057938 
	C42.336582,204.840164 43.268475,205.622391 45.032497,207.103119 
	C45.032497,202.052185 45.102932,198.582275 45.019218,195.116058 
	C44.773350,184.935669 47.364513,185.893875 35.286762,186.027283 
	C29.564798,186.090485 26.141224,189.645966 25.791559,195.403442 
	C25.620840,198.214417 25.529556,201.061661 25.812082,203.850983 
	C25.905941,204.777634 27.277679,205.574844 28.821341,207.253479 
	C29.107519,204.198364 29.241581,202.767181 29.403774,201.035675 
	C32.742149,201.035675 35.873180,200.886612 38.972843,201.132660 
	C39.827900,201.200531 40.589462,202.446289 41.404690,204.057938 
M225.386688,201.050522 
	C226.843674,201.115417 228.300659,201.180313 229.762360,201.245422 
	C229.909973,202.974884 230.032898,204.415131 230.177628,206.110764 
	C231.365479,205.914200 233.087173,205.779037 233.090851,205.607101 
	C233.228058,199.201172 233.206528,192.791855 233.206528,186.463150 
	C216.787308,184.096039 212.263580,188.883347 215.706238,206.489990 
	C216.729691,204.779678 217.753143,203.069366 218.961243,201.050476 
	C220.470963,201.050476 222.458542,201.050476 225.386688,201.050522 
M110.391411,198.046326 
	C110.889603,198.046402 111.476303,197.874680 111.870010,198.077545 
	C113.255081,198.791122 114.573845,199.633377 115.917770,200.426804 
	C114.578110,201.031250 113.274384,202.033173 111.891380,202.158218 
	C108.926392,202.426285 105.895409,202.021515 102.944466,202.357666 
	C101.861794,202.481003 100.928955,203.919495 99.927773,204.758057 
	C100.222389,205.186401 100.517006,205.614746 100.811623,206.043091 
	C104.940079,206.043091 109.068726,206.018036 113.196915,206.050476 
	C116.952148,206.079987 119.381699,204.265793 119.576797,200.563553 
	C119.787506,196.565247 117.284111,194.525528 113.405464,194.271454 
	C111.255302,194.130585 109.042763,194.485947 106.950272,194.108276 
	C105.866539,193.912674 104.983109,192.607239 104.009193,191.803207 
	C104.947861,191.124268 105.839134,189.956009 106.834221,189.859634 
	C109.631409,189.588715 112.498726,189.984283 115.281059,189.645798 
	C116.407471,189.508759 117.385254,188.149994 118.430672,187.347168 
	C118.169876,186.891083 117.909088,186.434998 117.648293,185.978912 
	C113.688293,185.978912 109.722404,185.844910 105.770020,186.018524 
	C102.189743,186.175797 100.330940,188.496857 100.266800,191.876266 
	C100.202942,195.240509 101.942184,197.558563 105.511162,197.984863 
	C106.822227,198.141449 108.164871,198.033615 110.391411,198.046326 
M133.335281,206.039795 
	C137.086655,206.230530 141.012238,205.338058 141.754196,201.524048 
	C142.520142,197.586761 142.532944,192.832062 140.964752,189.277939 
	C138.909302,184.619537 133.461838,185.486023 129.395432,186.221481 
	C126.899323,186.672958 123.495277,188.858139 122.756981,191.031784 
	C120.365288,198.073196 121.679321,207.077927 133.335281,206.039795 
M271.452393,206.050430 
	C273.560455,206.050430 275.668518,206.050430 277.776581,206.050430 
	C277.889984,205.455429 278.003387,204.860428 278.116760,204.265442 
	C274.626007,199.355927 268.275299,204.253250 264.081451,201.433594 
	C264.081451,197.723190 264.081451,193.962448 264.081451,190.340927 
	C268.521851,188.185883 274.460144,192.157227 277.792908,186.763016 
	C272.822754,185.952347 268.008087,185.743912 263.236481,186.105225 
	C262.104797,186.190933 260.334686,188.106491 260.209686,189.319611 
	C259.819580,193.105927 259.958313,196.963913 260.118713,200.784576 
	C260.257751,204.096405 262.100342,205.964935 265.519989,206.036163 
	C267.183319,206.070816 268.847839,206.047501 271.452393,206.050430 
M61.792488,197.588516 
	C61.680466,199.013870 61.568447,200.439224 61.463627,201.772964 
	C47.987858,203.591141 47.987858,203.591141 47.932449,206.026520 
	C51.898186,206.026520 55.865200,206.043015 59.832008,206.021744 
	C63.576302,206.001663 65.224548,203.964981 65.215866,200.351334 
	C65.204689,195.702713 65.213142,191.054077 65.213142,186.405441 
	C64.877167,186.129700 64.541191,185.853943 64.205215,185.578201 
	C63.401470,186.418045 62.004814,187.193115 61.904678,188.109818 
	C61.599171,190.906647 61.793037,193.758026 61.792488,197.588516 
M152.418335,192.569656 
	C152.420364,196.224762 152.248489,199.893616 152.535812,203.526169 
	C152.616638,204.547943 154.045349,205.463089 154.855820,206.427155 
	C155.317993,206.134857 155.780167,205.842560 156.242340,205.550262 
	C156.242340,200.329849 156.242340,195.109436 156.242340,189.924744 
	C163.361923,189.617935 163.361923,189.617935 163.589203,186.241302 
	C157.362686,186.241302 151.148605,186.241302 144.934525,186.241302 
	C144.705246,186.704605 144.475967,187.167908 144.246689,187.631195 
	C145.370773,188.342270 146.440079,189.168579 147.632660,189.735611 
	C149.172394,190.467697 150.810684,190.992508 152.418335,192.569656 
M175.467102,189.765793 
	C177.462692,189.763474 179.522537,190.057922 181.429291,189.645172 
	C182.535355,189.405746 183.395355,188.029480 184.366089,187.164795 
	C184.071350,186.760208 183.776611,186.355606 183.481873,185.951004 
	C178.844193,185.951004 174.184219,185.702393 169.583572,186.115143 
	C168.338577,186.226837 166.394928,188.263535 166.283112,189.548203 
	C165.880859,194.169617 165.982330,198.854996 166.234314,203.497711 
	C166.290405,204.531052 167.735519,205.488998 168.541092,206.481659 
	C169.041183,206.202484 169.541275,205.923325 170.041367,205.644150 
	C170.041367,200.411179 170.041367,195.178192 170.041367,189.765823 
	C171.863754,189.765823 173.181000,189.765823 175.467102,189.765793 
M179.938812,198.050003 
	C180.765945,197.047073 181.593094,196.044144 183.011642,194.324097 
	C171.293503,194.040237 171.293503,194.040237 171.681808,198.050476 
	C174.127396,198.050476 176.599289,198.050476 179.938812,198.050003 
M269.611389,198.046265 
	C271.719727,198.046265 273.828064,198.046265 275.936401,198.046265 
	C276.187225,197.566040 276.438049,197.085815 276.688873,196.605591 
	C275.624847,195.806335 274.662689,194.615128 273.471375,194.305511 
	C271.927673,193.904297 270.143066,193.941238 268.572052,194.287781 
	C267.303833,194.567520 266.198486,195.585602 265.020905,196.276154 
	C266.239960,196.866165 267.459045,197.456177 269.611389,198.046265 
M151.137039,224.305283 
	C148.880157,224.477676 146.623260,224.650070 143.225372,224.909622 
	C146.889786,227.853241 149.281219,227.199097 151.137039,224.305283 
M146.610016,220.257278 
	C147.121979,220.037659 147.633926,219.818054 148.145889,219.598434 
	C148.095490,219.399994 148.045074,219.201538 147.994675,219.003098 
	C146.910416,219.103729 145.826141,219.204361 144.741867,219.304993 
	C145.164215,219.709290 145.586563,220.113571 146.610016,220.257278 
M151.538849,219.192261 
	C151.065247,219.211884 150.591644,219.231491 150.118042,219.251114 
	C150.255585,219.689026 150.393127,220.126923 150.530655,220.564835 
	C150.946335,220.289856 151.362030,220.014893 151.538849,219.192261 
M78.855156,224.951355 
	C78.642700,224.436630 78.446953,223.912949 78.184654,223.425018 
	C78.164650,223.387802 77.673630,223.603775 77.401543,223.702057 
	C77.755600,224.259171 78.109650,224.816284 78.855156,224.951355 
z"/>
<path fill="#6B6B6B" opacity="1.000000" stroke="none" 
	d="
M146.013885,143.406219 
	C149.383011,140.233459 152.568756,136.826736 156.196243,133.983597 
	C158.098343,132.492752 160.706390,131.491348 163.117981,131.160324 
	C166.545990,130.689774 170.087677,130.986618 173.578934,131.053574 
	C177.725006,131.133072 181.376205,131.212021 184.588409,127.217392 
	C187.881790,123.121819 195.030457,124.387215 198.684601,128.737457 
	C202.188416,132.908737 201.703506,138.950043 197.569138,142.634689 
	C193.237518,146.495163 186.719589,146.608536 183.377975,142.038376 
	C181.022263,138.816620 178.389282,138.674332 175.007477,138.224716 
	C166.073914,137.037064 159.386185,139.963867 153.988297,147.134033 
	C151.929794,149.868408 148.625031,151.664566 145.858765,153.155045 
	C145.890823,149.416595 145.952362,146.411407 146.013885,143.406219 
M192.768448,140.071777 
	C193.892929,138.084259 195.699890,136.158707 195.888077,134.086182 
	C196.002518,132.825790 193.794769,130.481781 192.311096,130.176819 
	C190.577240,129.820450 188.073883,130.683975 186.706894,131.911774 
	C185.717514,132.800385 185.217331,135.907669 185.939972,136.683609 
	C187.494766,138.353119 189.979233,139.156876 192.768448,140.071777 
z"/>
<path fill="#686868" opacity="1.000000" stroke="none" 
	d="
M200.013092,109.982834 
	C198.978439,110.587029 197.814972,111.044266 196.930405,111.819679 
	C191.848953,116.274040 187.469696,115.979027 182.510269,111.405815 
	C180.803970,109.832413 177.897339,108.149887 175.912064,108.519699 
	C163.372116,110.855652 154.328506,105.473618 146.361603,95.905914 
	C145.904160,92.511986 145.780579,89.589287 145.657013,86.666580 
	C146.570786,83.703407 147.746445,85.647690 148.679367,86.580109 
	C152.325211,90.223984 156.064560,93.793739 159.458206,97.663734 
	C161.752472,100.280037 164.255722,101.397072 167.707855,101.112991 
	C170.846222,100.854721 174.045792,101.283760 177.172409,100.962448 
	C178.777191,100.797539 180.669754,100.027588 181.761627,98.888313 
	C185.720795,94.757240 190.567841,93.261208 194.619492,95.358147 
	C198.859100,97.552361 200.788895,102.391418 199.636566,107.852448 
	C199.536575,108.326302 199.651215,108.845459 199.840302,109.684921 
	C200.014435,110.026276 200.013092,109.982834 200.013092,109.982834 
M185.397644,106.844696 
	C187.564301,110.263443 190.641571,111.306602 193.658325,108.600731 
	C194.988586,107.407539 195.866974,103.995766 195.101654,102.618896 
	C194.163452,100.930954 191.213348,99.316040 189.267654,99.462120 
	C185.771362,99.724609 184.527237,102.611900 185.397644,106.844696 
z"/>
<path fill="#9E9E9E" opacity="1.000000" stroke="none" 
	d="
M145.857269,143.089874 
	C145.952362,146.411407 145.890823,149.416595 145.743668,152.886780 
	C141.703018,149.589233 137.951767,145.572281 133.706467,142.172150 
	C131.602875,140.487366 128.669571,139.575562 125.965088,138.983032 
	C123.588402,138.462311 120.996231,139.023392 118.519310,138.838211 
	C115.062073,138.579712 112.490517,139.221756 110.080437,142.324738 
	C106.594582,146.812790 99.894073,146.762405 95.856026,142.999222 
	C92.075256,139.475815 91.768219,132.257629 95.237740,128.463593 
	C99.160721,124.173676 105.988777,123.670410 109.854324,128.093353 
	C112.160957,130.732620 114.460678,131.495728 117.580544,131.173721 
	C118.073441,131.122833 118.591133,131.245941 119.072067,131.154938 
	C130.593719,128.974991 139.279892,133.273468 145.857269,143.089874 
M100.367996,130.804932 
	C97.009636,133.484940 96.550026,136.686188 99.621292,139.621872 
	C102.007675,141.902893 105.117294,141.503326 106.831337,138.697784 
	C107.766510,137.167099 108.153854,134.018997 107.228058,132.944092 
	C105.939735,131.448303 103.188629,131.212387 100.367996,130.804932 
z"/>
<path fill="#9E9E9E" opacity="1.000000" stroke="none" 
	d="
M145.353149,86.798798 
	C145.780579,89.589287 145.904160,92.511986 146.039719,95.930748 
	C142.571823,100.186028 139.193298,104.048615 135.539978,107.630959 
	C134.639816,108.513626 132.855774,108.766426 131.459351,108.819893 
	C127.469337,108.972664 123.465965,108.981606 119.474930,108.842987 
	C115.715775,108.712433 112.706429,109.172363 109.883041,112.499931 
	C105.730606,117.393860 100.537865,115.115639 95.376823,112.889099 
	C94.999451,113.000107 95.021149,113.025116 95.058762,112.695320 
	C94.722237,112.236687 94.348091,112.107849 93.987015,111.990860 
	C94.000076,112.002708 94.023628,112.028976 94.023628,112.028976 
	C93.785011,110.607498 93.590637,109.176910 93.299820,107.766190 
	C92.257729,102.711166 94.511948,98.000984 99.083801,95.754807 
	C103.191818,93.736504 107.552559,94.979050 111.147621,98.588150 
	C112.458237,99.903885 114.583107,100.759010 116.466591,101.095009 
	C126.413101,102.869400 134.545364,99.991753 140.425064,91.409340 
	C141.613449,89.674706 143.489990,88.411530 145.353149,86.798798 
M106.971878,108.783195 
	C109.341766,104.315147 108.331848,100.375648 104.400932,100.041359 
	C102.633545,99.891068 99.818138,100.887146 99.117790,102.222755 
	C98.260490,103.857697 98.326286,107.481972 99.426537,108.287148 
	C101.099030,109.511116 104.004562,109.050201 106.971878,108.783195 
z"/>
<path fill="#6C6C6C" opacity="1.000000" stroke="none" 
	d="
M199.992493,110.025436 
	C201.145538,109.936256 202.380219,110.050797 203.485519,109.725594 
	C209.274979,108.022202 215.051468,110.427849 217.279037,115.580719 
	C219.093216,119.777336 217.264481,125.005432 213.025787,127.740173 
	C208.058792,130.944809 203.069305,129.871429 198.885437,125.135544 
	C197.761490,123.863289 195.719482,122.785416 194.053726,122.716911 
	C187.402420,122.443352 180.727081,122.428474 174.073120,122.666885 
	C170.025436,122.811913 168.408661,121.550179 169.962631,116.682137 
	C176.454208,116.682137 183.236542,116.269875 189.941681,116.812088 
	C195.341400,117.248741 198.791840,115.582306 200.342010,110.278374 
	C200.013092,109.982834 200.014435,110.026276 199.992493,110.025436 
M202.786194,116.452644 
	C202.977249,118.599380 202.459732,121.226601 203.517075,122.785912 
	C205.331161,125.461197 208.795914,125.759254 210.761810,123.265625 
	C212.035889,121.649544 212.541290,118.035728 211.582123,116.340752 
	C209.591705,112.823410 206.260971,112.991859 202.786194,116.452644 
z"/>
<path fill="#9E9E9E" opacity="1.000000" stroke="none" 
	d="
M94.988159,112.987961 
	C95.109741,116.402451 97.007263,117.301903 100.232605,117.224480 
	C108.008484,117.037819 115.791862,117.163986 123.841614,117.163986 
	C123.841614,119.310127 123.841614,120.871445 123.841614,123.012543 
	C115.788254,123.012543 108.006866,122.899635 100.233490,123.098984 
	C98.484566,123.143845 96.241737,123.792130 95.119461,124.995567 
	C90.070686,130.409470 85.214645,131.518768 80.378998,127.861809 
	C75.770187,124.376381 74.627419,118.672104 77.639389,114.186600 
	C81.138741,108.975258 86.510422,108.080208 92.881454,111.648003 
	C93.026482,111.729218 93.164375,111.823166 93.664612,111.970078 
	C94.023628,112.028976 94.000076,112.002708 94.015770,112.281906 
	C94.361359,112.715782 94.691254,112.870445 95.021149,113.025116 
	C95.021149,113.025116 94.999451,113.000107 94.988159,112.987961 
M83.507332,114.986824 
	C80.240463,117.280449 79.980240,120.487381 82.331329,123.092537 
	C83.506393,124.394592 87.342072,125.169472 88.373726,124.294823 
	C89.985382,122.928452 91.163315,119.822975 90.853416,117.698112 
	C90.357628,114.298599 87.399567,113.655792 83.507332,114.986824 
z"/>
<path fill="#6B6B6B" opacity="1.000000" stroke="none" 
	d="
M145.876175,66.853989 
	C146.760208,66.867378 148.002487,66.502357 148.475388,66.950027 
	C157.865219,75.839104 167.166061,84.822197 176.062790,94.335938 
	C170.691055,96.014832 166.388611,96.405365 162.413635,91.919922 
	C157.604492,86.493195 151.990173,81.780006 146.399261,76.302696 
	C146.008209,72.849571 145.942200,69.851784 145.876175,66.853989 
z"/>
<path fill="#686868" opacity="1.000000" stroke="none" 
	d="
M146.000702,163.200226 
	C150.917557,158.542206 156.221603,154.219940 160.637695,149.127640 
	C164.702744,144.440155 169.163544,142.694290 175.478897,144.286407 
	C174.890289,145.206955 174.469711,146.188004 173.774857,146.902191 
	C165.440430,155.468689 157.078949,164.009094 148.672348,172.504669 
	C148.067230,173.116196 147.055176,173.325043 146.107635,173.000580 
	C145.988846,169.253433 145.994766,166.226822 146.000702,163.200226 
z"/>
<path fill="#9B9B9B" opacity="1.000000" stroke="none" 
	d="
M145.860489,162.887817 
	C145.994766,166.226822 145.988846,169.253433 145.909164,172.739990 
	C140.204819,167.637878 134.600388,162.048996 128.934586,156.523026 
	C125.058311,152.742432 121.096504,149.049530 116.594543,144.767258 
	C123.624481,143.207596 128.425644,144.000031 132.535553,149.082687 
	C136.472092,153.950912 141.289825,158.106583 145.860489,162.887817 
z"/>
<path fill="#9B9B9B" opacity="1.000000" stroke="none" 
	d="
M145.575043,66.999359 
	C145.942200,69.851784 146.008209,72.849571 146.037170,76.281540 
	C140.119904,82.802139 134.580933,89.288826 128.170776,94.753632 
	C125.985161,96.616928 121.609306,95.911087 118.234207,96.379128 
	C117.987457,95.967697 117.740700,95.556267 117.493942,95.144836 
	C126.753937,85.811470 136.013931,76.478096 145.575043,66.999359 
z"/>
<path fill="#101010" opacity="1.000000" stroke="none" 
	d="
M200.447876,190.630890 
	C202.090500,193.239807 203.509308,195.573547 204.977661,197.988785 
	C208.052811,194.123123 204.916809,188.094894 211.599167,184.967972 
	C210.232803,192.779648 209.085556,199.338562 207.938309,205.897476 
	C207.399216,206.120651 206.860107,206.343826 206.320999,206.566986 
	C203.787613,202.792175 201.254242,199.017365 198.512161,194.931580 
	C196.053070,198.768814 193.651703,202.515991 191.250336,206.263153 
	C190.654785,206.239761 190.059235,206.216370 189.463669,206.192963 
	C188.190903,199.630707 186.918121,193.068451 185.623642,186.394302 
	C189.231277,186.361481 189.231277,186.361481 191.706635,198.325638 
	C193.470703,195.608383 194.767197,193.517746 196.161774,191.494720 
	C197.163574,190.041489 198.087265,187.923782 200.447876,190.630890 
z"/>
<path fill="#101010" opacity="1.000000" stroke="none" 
	d="
M251.786804,189.773300 
	C248.033493,189.741623 244.752625,189.741623 241.162598,189.741623 
	C241.162598,195.203629 241.162598,200.310501 241.162598,207.066391 
	C239.353241,205.593719 237.663528,204.873764 237.632675,204.088638 
	C237.405609,198.310730 237.509979,192.519775 237.509979,186.048248 
	C243.106110,186.048248 248.205933,185.694305 253.229675,186.160263 
	C257.247437,186.532928 258.443481,193.609268 255.234833,197.283066 
	C254.306030,198.346497 252.990280,199.071945 251.200607,200.456039 
	C253.333618,202.017563 255.288162,203.448425 257.823944,205.304794 
	C252.214233,206.213089 243.063049,200.323669 242.573853,196.770432 
	C245.999664,195.955368 249.431305,195.258316 252.725723,194.152466 
	C253.023178,194.052643 252.435760,191.316696 251.786804,189.773300 
z"/>
<path fill="#171717" opacity="1.000000" stroke="none" 
	d="
M75.068153,199.616119 
	C74.458817,198.467941 74.238068,197.427277 74.064949,196.611206 
	C77.840614,194.287582 85.472084,199.504105 84.924004,190.032379 
	C81.020691,190.032379 77.267242,190.032379 73.014374,190.032379 
	C73.014374,195.194229 73.014374,200.424133 73.014374,205.654037 
	C72.514267,205.928528 72.014168,206.203003 71.514061,206.477493 
	C70.720810,205.476807 69.298546,204.509933 69.242599,203.469589 
	C68.993240,198.832825 69.221130,194.172852 69.102898,189.525696 
	C69.028625,186.606674 70.418495,185.783600 73.083473,185.923462 
	C75.899040,186.071228 78.728394,185.961700 81.551704,185.955002 
	C84.375656,185.948318 87.484978,185.508713 88.340179,189.303619 
	C89.196930,193.105377 88.829681,196.609528 85.082092,198.891281 
	C84.550720,199.214813 83.951302,199.426575 82.849609,199.937698 
	C84.967003,201.932556 86.800842,203.660248 88.634674,205.387939 
	C88.435768,205.788422 88.236862,206.188904 88.037956,206.589386 
	C85.848038,205.683746 83.561638,204.954422 81.494972,203.823547 
	C79.370529,202.661041 77.460556,201.106583 75.068153,199.616119 
z"/>
<path fill="#121212" opacity="1.000000" stroke="none" 
	d="
M41.399307,203.604767 
	C40.589462,202.446289 39.827900,201.200531 38.972843,201.132660 
	C35.873180,200.886612 32.742149,201.035675 29.403774,201.035675 
	C29.241581,202.767181 29.107519,204.198364 28.821341,207.253479 
	C27.277679,205.574844 25.905941,204.777634 25.812082,203.850983 
	C25.529556,201.061661 25.620840,198.214417 25.791559,195.403442 
	C26.141224,189.645966 29.564798,186.090485 35.286762,186.027283 
	C47.364513,185.893875 44.773350,184.935669 45.019218,195.116058 
	C45.102932,198.582275 45.032497,202.052185 45.032497,207.103119 
	C43.268475,205.622391 42.336582,204.840164 41.399307,203.604767 
M39.653084,189.742126 
	C30.893042,189.709869 29.231846,190.913361 29.729441,197.276093 
	C31.664612,197.276093 33.628086,197.276077 35.591560,197.276077 
	C37.490219,197.276077 39.388878,197.276093 41.879211,197.276093 
	C41.360363,194.247665 40.985558,192.060028 39.653084,189.742126 
z"/>
<path fill="#1B1B1B" opacity="1.000000" stroke="none" 
	d="
M224.916397,201.050507 
	C222.458542,201.050476 220.470963,201.050476 218.961243,201.050476 
	C217.753143,203.069366 216.729691,204.779678 215.706238,206.489990 
	C212.263580,188.883347 216.787308,184.096039 233.206528,186.463150 
	C233.206528,192.791855 233.228058,199.201172 233.090851,205.607101 
	C233.087173,205.779037 231.365479,205.914200 230.177628,206.110764 
	C230.032898,204.415131 229.909973,202.974884 229.762360,201.245422 
	C228.300659,201.180313 226.843674,201.115417 224.916397,201.050507 
M219.798935,197.228348 
	C223.047760,197.228348 226.296570,197.228348 229.738770,197.228348 
	C229.738770,194.596878 229.738770,192.370377 229.738770,189.989532 
	C227.126801,189.989532 224.577408,189.504868 222.313461,190.102158 
	C218.843628,191.017639 216.502792,193.119720 219.798935,197.228348 
z"/>
<path fill="#181818" opacity="1.000000" stroke="none" 
	d="
M109.942261,198.046356 
	C108.164871,198.033615 106.822227,198.141449 105.511162,197.984863 
	C101.942184,197.558563 100.202942,195.240509 100.266800,191.876266 
	C100.330940,188.496857 102.189743,186.175797 105.770020,186.018524 
	C109.722404,185.844910 113.688293,185.978912 117.648293,185.978912 
	C117.909088,186.434998 118.169876,186.891083 118.430672,187.347168 
	C117.385254,188.149994 116.407471,189.508759 115.281059,189.645798 
	C112.498726,189.984283 109.631409,189.588715 106.834221,189.859634 
	C105.839134,189.956009 104.947861,191.124268 104.009186,191.803207 
	C104.983109,192.607239 105.866539,193.912674 106.950272,194.108276 
	C109.042763,194.485947 111.255302,194.130585 113.405464,194.271454 
	C117.284111,194.525528 119.787506,196.565247 119.576797,200.563553 
	C119.381699,204.265793 116.952148,206.079987 113.196915,206.050476 
	C109.068726,206.018036 104.940079,206.043091 100.811623,206.043091 
	C100.517006,205.614746 100.222389,205.186401 99.927773,204.758057 
	C100.928955,203.919495 101.861794,202.481003 102.944466,202.357666 
	C105.895409,202.021515 108.926392,202.426285 111.891380,202.158218 
	C113.274384,202.033173 114.578110,201.031250 115.917770,200.426804 
	C114.573845,199.633377 113.255081,198.791122 111.870010,198.077545 
	C111.476303,197.874680 110.889603,198.046402 109.942261,198.046356 
z"/>
<path fill="#151515" opacity="1.000000" stroke="none" 
	d="
M132.900543,206.039841 
	C121.679321,207.077927 120.365288,198.073196 122.756981,191.031784 
	C123.495277,188.858139 126.899323,186.672958 129.395432,186.221481 
	C133.461838,185.486023 138.909302,184.619537 140.964752,189.277939 
	C142.532944,192.832062 142.520142,197.586761 141.754196,201.524048 
	C141.012238,205.338058 137.086655,206.230530 132.900543,206.039841 
M131.604889,189.724579 
	C129.823639,190.342819 126.649101,190.744431 126.513206,191.618484 
	C126.039085,194.667938 125.437103,199.333099 127.085625,200.670944 
	C129.239456,202.418823 133.949203,202.643143 136.668533,201.465683 
	C138.331726,200.745544 138.972992,196.150635 138.908524,193.322449 
	C138.819595,189.419830 135.321579,189.763626 131.604889,189.724579 
z"/>
<path fill="#1B1B1B" opacity="1.000000" stroke="none" 
	d="
M270.982117,206.050430 
	C268.847839,206.047501 267.183319,206.070816 265.519989,206.036163 
	C262.100342,205.964935 260.257751,204.096405 260.118713,200.784576 
	C259.958313,196.963913 259.819580,193.105927 260.209686,189.319611 
	C260.334686,188.106491 262.104797,186.190933 263.236481,186.105225 
	C268.008087,185.743912 272.822754,185.952347 277.792908,186.763016 
	C274.460144,192.157227 268.521851,188.185883 264.081451,190.340927 
	C264.081451,193.962448 264.081451,197.723190 264.081451,201.433594 
	C268.275299,204.253250 274.626007,199.355927 278.116760,204.265442 
	C278.003387,204.860428 277.889984,205.455429 277.776581,206.050430 
	C275.668518,206.050430 273.560455,206.050430 270.982117,206.050430 
z"/>
<path fill="#325F6B" opacity="1.000000" stroke="none" 
	d="
M161.307861,120.092476 
	C160.636383,120.888657 159.964920,121.684837 158.653870,122.741455 
	C147.383240,123.142960 145.891251,124.619362 146.018387,134.872482 
	C140.816360,129.933548 135.614349,124.994606 130.058502,119.719734 
	C131.611664,118.498665 132.722549,117.625305 134.425980,116.781372 
	C142.830704,118.798500 150.062958,124.951118 158.852402,120.084663 
	C159.477753,119.738434 160.480560,120.073959 161.307861,120.092476 
z"/>
<path fill="#101010" opacity="1.000000" stroke="none" 
	d="
M61.792526,197.088348 
	C61.793037,193.758026 61.599171,190.906647 61.904678,188.109818 
	C62.004814,187.193115 63.401470,186.418045 64.205215,185.578201 
	C64.541191,185.853943 64.877167,186.129700 65.213142,186.405441 
	C65.213142,191.054077 65.204689,195.702713 65.215866,200.351334 
	C65.224548,203.964981 63.576302,206.001663 59.832008,206.021744 
	C55.865200,206.043015 51.898186,206.026520 47.932449,206.026520 
	C47.987858,203.591141 47.987858,203.591141 61.463627,201.772964 
	C61.568447,200.439224 61.680466,199.013870 61.792526,197.088348 
z"/>
<path fill="#1B1B1B" opacity="1.000000" stroke="none" 
	d="
M152.412430,192.088104 
	C150.810684,190.992508 149.172394,190.467697 147.632660,189.735611 
	C146.440079,189.168579 145.370773,188.342270 144.246689,187.631195 
	C144.475967,187.167908 144.705246,186.704605 144.934525,186.241302 
	C151.148605,186.241302 157.362686,186.241302 163.589203,186.241302 
	C163.361923,189.617935 163.361923,189.617935 156.242340,189.924744 
	C156.242340,195.109436 156.242340,200.329849 156.242340,205.550262 
	C155.780167,205.842560 155.317993,206.134857 154.855820,206.427155 
	C154.045349,205.463089 152.616638,204.547943 152.535812,203.526169 
	C152.248489,199.893616 152.420364,196.224762 152.412430,192.088104 
z"/>
<path fill="#1B1B1B" opacity="1.000000" stroke="none" 
	d="
M174.982666,189.765808 
	C173.181000,189.765823 171.863754,189.765823 170.041367,189.765823 
	C170.041367,195.178192 170.041367,200.411179 170.041367,205.644150 
	C169.541275,205.923325 169.041183,206.202484 168.541092,206.481659 
	C167.735519,205.488998 166.290405,204.531052 166.234314,203.497711 
	C165.982330,198.854996 165.880859,194.169617 166.283112,189.548203 
	C166.394928,188.263535 168.338577,186.226837 169.583572,186.115143 
	C174.184219,185.702393 178.844193,185.951004 183.481873,185.951004 
	C183.776611,186.355606 184.071350,186.760208 184.366089,187.164795 
	C183.395355,188.029480 182.535355,189.405746 181.429291,189.645172 
	C179.522537,190.057922 177.462692,189.763474 174.982666,189.765808 
z"/>
<path fill="#5A7FA2" opacity="1.000000" stroke="none" 
	d="
M154.107590,110.746101 
	C156.267914,112.637871 158.428223,114.529640 160.296478,116.727051 
	C155.622604,117.602135 151.214294,118.764641 146.866592,118.570427 
	C142.708115,118.384674 138.612656,116.788223 134.489487,115.811821 
	C135.455276,114.615089 136.421066,113.418358 138.115921,112.134850 
	C144.038834,112.860420 149.310440,114.584259 154.107590,110.746101 
z"/>
<path fill="#354152" opacity="1.000000" stroke="none" 
	d="
M146.363312,134.949310 
	C145.891251,124.619362 147.383240,123.142960 158.430176,122.993271 
	C154.800140,126.998482 150.754196,131.012299 146.363312,134.949310 
z"/>
<path fill="#496581" opacity="1.000000" stroke="none" 
	d="
M134.440201,115.915588 
	C138.612656,116.788223 142.708115,118.384674 146.866592,118.570427 
	C151.214294,118.764641 155.622604,117.602135 160.403931,117.032455 
	C161.223633,117.999001 161.643799,118.965759 161.685913,120.012497 
	C160.480560,120.073959 159.477753,119.738434 158.852402,120.084663 
	C150.062958,124.951118 142.830704,118.798500 134.660217,116.520966 
	C134.301910,116.231140 134.390915,116.019348 134.440201,115.915588 
z"/>
<path fill="#7692C0" opacity="1.000000" stroke="none" 
	d="
M154.059204,110.468010 
	C149.310440,114.584259 144.038834,112.860420 138.427032,112.025314 
	C139.853867,110.141388 141.698669,108.280220 144.126068,106.403641 
	C146.332458,110.056831 149.179779,109.860741 152.303192,108.792572 
	C152.872391,109.258354 153.441589,109.724136 154.059204,110.468010 
z"/>
<path fill="#1B1B1B" opacity="1.000000" stroke="none" 
	d="
M179.505005,198.050232 
	C176.599289,198.050476 174.127396,198.050476 171.681808,198.050476 
	C171.293503,194.040237 171.293503,194.040237 183.011642,194.324097 
	C181.593094,196.044144 180.765945,197.047073 179.505005,198.050232 
z"/>
<path fill="#181818" opacity="1.000000" stroke="none" 
	d="
M269.144745,198.046234 
	C267.459045,197.456177 266.239960,196.866165 265.020905,196.276154 
	C266.198486,195.585602 267.303833,194.567520 268.572052,194.287781 
	C270.143066,193.941238 271.927673,193.904297 273.471375,194.305511 
	C274.662689,194.615128 275.624847,195.806335 276.688873,196.605591 
	C276.438049,197.085815 276.187225,197.566040 275.936401,198.046265 
	C273.828064,198.046265 271.719727,198.046265 269.144745,198.046234 
z"/>
<path fill="#94ACDA" opacity="1.000000" stroke="none" 
	d="
M152.189728,108.475494 
	C149.179779,109.860741 146.332458,110.056831 144.411499,106.244019 
	C144.901917,105.104683 145.689484,104.109543 146.848495,102.645081 
	C148.776352,104.678246 150.426315,106.418327 152.189728,108.475494 
z"/>
<path fill="#F6F6F6" opacity="1.000000" stroke="none" 
	d="
M158.990677,221.724304 
	C159.662903,220.562592 160.335144,219.400879 161.007370,218.239166 
	C161.450867,218.313614 161.894348,218.388062 162.337845,218.462509 
	C162.504074,220.817062 162.670303,223.171600 162.836548,225.526154 
	C162.485886,225.612946 162.135239,225.699738 161.784592,225.786530 
	C161.523529,225.176285 161.262466,224.566025 161.067841,223.221024 
	C160.419754,222.232269 159.705215,221.978287 158.990677,221.724304 
z"/>
<path fill="#F3F3F3" opacity="1.000000" stroke="none" 
	d="
M151.378052,224.549133 
	C149.281219,227.199097 146.889786,227.853241 143.225372,224.909622 
	C146.623260,224.650070 148.880157,224.477676 151.378052,224.549133 
z"/>
<path fill="#F3F3F3" opacity="1.000000" stroke="none" 
	d="
M146.309479,220.387573 
	C145.586563,220.113571 145.164215,219.709290 144.741867,219.304993 
	C145.826141,219.204361 146.910416,219.103729 147.994675,219.003098 
	C148.045074,219.201538 148.095490,219.399994 148.145889,219.598434 
	C147.633926,219.818054 147.121979,220.037659 146.309479,220.387573 
z"/>
<path fill="#F3F3F3" opacity="1.000000" stroke="none" 
	d="
M151.658295,219.466095 
	C151.362030,220.014893 150.946335,220.289856 150.530655,220.564835 
	C150.393127,220.126923 150.255585,219.689026 150.118042,219.251114 
	C150.591644,219.231491 151.065247,219.211884 151.658295,219.466095 
z"/>
<path fill="#F3F3F3" opacity="1.000000" stroke="none" 
	d="
M78.659431,225.162384 
	C78.109650,224.816284 77.755600,224.259171 77.401543,223.702057 
	C77.673630,223.603775 78.164650,223.387802 78.184654,223.425018 
	C78.446953,223.912949 78.642700,224.436630 78.659431,225.162384 
z"/>
<path fill="#101010" opacity="1.000000" stroke="none" 
	d="
M158.640442,221.858154 
	C159.705215,221.978287 160.419754,222.232269 161.098328,222.888000 
	C159.950958,223.158005 158.839569,223.026260 157.728165,222.894501 
	C157.915512,222.593674 158.102875,222.292847 158.640442,221.858154 
z"/>
<path fill="#F3F3F3" opacity="1.000000" stroke="none" 
	d="
M192.425812,140.193390 
	C189.979233,139.156876 187.494766,138.353119 185.939972,136.683609 
	C185.217331,135.907669 185.717514,132.800385 186.706894,131.911774 
	C188.073883,130.683975 190.577240,129.820450 192.311096,130.176819 
	C193.794769,130.481781 196.002518,132.825790 195.888077,134.086182 
	C195.699890,136.158707 193.892929,138.084259 192.425812,140.193390 
z"/>
<path fill="#F3F3F3" opacity="1.000000" stroke="none" 
	d="
M185.275665,106.465302 
	C184.527237,102.611900 185.771362,99.724609 189.267654,99.462120 
	C191.213348,99.316040 194.163452,100.930954 195.101654,102.618896 
	C195.866974,103.995766 194.988586,107.407539 193.658325,108.600731 
	C190.641571,111.306602 187.564301,110.263443 185.275665,106.465302 
z"/>
<path fill="#F9F9F9" opacity="1.000000" stroke="none" 
	d="
M100.715813,130.621063 
	C103.188629,131.212387 105.939735,131.448303 107.228058,132.944092 
	C108.153854,134.018997 107.766510,137.167099 106.831337,138.697784 
	C105.117294,141.503326 102.007675,141.902893 99.621292,139.621872 
	C96.550026,136.686188 97.009636,133.484940 100.715813,130.621063 
z"/>
<path fill="#F9F9F9" opacity="1.000000" stroke="none" 
	d="
M106.679123,109.044060 
	C104.004562,109.050201 101.099030,109.511116 99.426537,108.287148 
	C98.326286,107.481972 98.260490,103.857697 99.117790,102.222755 
	C99.818138,100.887146 102.633545,99.891068 104.400932,100.041359 
	C108.331848,100.375648 109.341766,104.315147 106.679123,109.044060 
z"/>
<path fill="#FEFEFE" opacity="1.000000" stroke="none" 
	d="
M95.058762,112.695320 
	C94.691254,112.870445 94.361359,112.715782 94.002708,112.270065 
	C94.348091,112.107849 94.722237,112.236687 95.058762,112.695320 
z"/>
<path fill="#F3F3F3" opacity="1.000000" stroke="none" 
	d="
M203.039062,116.143982 
	C206.260971,112.991859 209.591705,112.823410 211.582123,116.340752 
	C212.541290,118.035728 212.035889,121.649544 210.761810,123.265625 
	C208.795914,125.759254 205.331161,125.461197 203.517075,122.785912 
	C202.459732,121.226601 202.977249,118.599380 203.039062,116.143982 
z"/>
<path fill="#F9F9F9" opacity="1.000000" stroke="none" 
	d="
M83.874435,114.868904 
	C87.399567,113.655792 90.357628,114.298599 90.853416,117.698112 
	C91.163315,119.822975 89.985382,122.928452 88.373726,124.294823 
	C87.342072,125.169472 83.506393,124.394592 82.331329,123.092537 
	C79.980240,120.487381 80.240463,117.280449 83.874435,114.868904 
z"/>
<path fill="#F9F9F9" opacity="1.000000" stroke="none" 
	d="
M40.131920,189.807251 
	C40.985558,192.060028 41.360363,194.247665 41.879211,197.276093 
	C39.388878,197.276093 37.490219,197.276077 35.591560,197.276077 
	C33.628086,197.276077 31.664612,197.276093 29.729441,197.276093 
	C29.231846,190.913361 30.893042,189.709869 40.131920,189.807251 
z"/>
<path fill="#FEFEFE" opacity="1.000000" stroke="none" 
	d="
M219.339111,197.203644 
	C216.502792,193.119720 218.843628,191.017639 222.313461,190.102158 
	C224.577408,189.504868 227.126801,189.989532 229.738770,189.989532 
	C229.738770,192.370377 229.738770,194.596878 229.738770,197.228348 
	C226.296570,197.228348 223.047760,197.228348 219.339111,197.203644 
z"/>
<path fill="#F6F6F6" opacity="1.000000" stroke="none" 
	d="
M132.051468,189.724380 
	C135.321579,189.763626 138.819595,189.419830 138.908524,193.322449 
	C138.972992,196.150635 138.331726,200.745544 136.668533,201.465683 
	C133.949203,202.643143 129.239456,202.418823 127.085625,200.670944 
	C125.437103,199.333099 126.039085,194.667938 126.513206,191.618484 
	C126.649101,190.744431 129.823639,190.342819 132.051468,189.724380 
z"/>
</svg>